<svg width="60" height="60" viewBox="0 0 60 60" fill="none" xmlns="http://www.w3.org/2000/svg">
<path d="M59.9996 30C59.9996 33.9396 59.2236 37.8407 57.716 41.4805C56.2084 45.1203 53.9986 48.4274 51.2128 51.2132C48.4271 53.9989 45.12 56.2087 41.4802 57.7164C37.8405 59.224 33.9394 60 29.9998 60C26.0602 60 22.1591 59.224 18.5194 57.7164C14.8796 56.2087 11.5725 53.9989 8.78673 51.2132C6.001 48.4274 3.79123 45.1203 2.2836 41.4805C0.775967 37.8407 -3.44413e-07 33.9396 0 30L29.9998 30H59.9996Z" fill="#C0A9F4"/>
<path d="M0.000419617 30C0.000419617 26.0604 0.776387 22.1593 2.28402 18.5195C3.79165 14.8797 6.00142 11.5726 8.78716 8.78681C11.5729 6.00106 14.88 3.79127 18.5198 2.28363C22.1595 0.775991 26.0606 1.89013e-05 30.0002 1.90735e-05C33.9398 1.92457e-05 37.8409 0.775992 41.4806 2.28363C45.1204 3.79127 48.4275 6.00106 51.2133 8.78681C53.999 11.5726 56.2088 14.8797 57.7164 18.5195C59.224 22.1593 60 26.0604 60 30L30.0002 30L0.000419617 30Z" fill="#532E6E"/>
<g filter="url(#filter0_f_61_664)">
<ellipse cx="29.9999" cy="30" rx="14.9999" ry="15" fill="#A26D63"/>
</g>
<defs>
<filter id="filter0_f_61_664" x="11" y="11" width="37.9998" height="38" filterUnits="userSpaceOnUse" color-interpolation-filters="sRGB">
<feFlood flood-opacity="0" result="BackgroundImageFix"/>
<feBlend mode="normal" in="SourceGraphic" in2="BackgroundImageFix" result="shape"/>
<feGaussianBlur stdDeviation="2" result="effect1_foregroundBlur_61_664"/>
</filter>
</defs>
</svg>
